<svg width="342" height="342" viewBox="0 0 342 342" fill="none" xmlns="http://www.w3.org/2000/svg">
    <path d="M170.667 31.3334L0.666748 31.3334L0.666748 171.333L0.666748 311.333L170.667 311.333H340.667L340.667 171.333V31.3334L170.667 31.3334ZM302.267 272C300.933 269.867 280.133 232.267 256 188.667C231.867 145.067 206.933 100 200.667 88.6667C194.267 77.3334 189.333 67.6 189.6 67.0667C189.867 66.4 215.867 66 247.467 66L304.667 66V171.067C304.667 272.933 304.533 275.867 302.267 272ZM170.667 276.667C111.2 276.667 79.3334 276.267 79.3334 275.333C79.3334 273.467 170.267 104.667 171.333 104.667C171.733 104.667 180.4 120.133 190.4 139.067C200.4 157.867 220.533 195.867 235.2 223.333C249.867 250.8 261.867 274.133 262 275.067C262 276.267 242.933 276.667 170.667 276.667ZM95.0668 171.6C63.3334 228.667 36.9334 274.8 36.4001 274.267C35.8667 273.733 35.4667 226.667 35.6001 169.867L36.0001 66.6667L94.4001 66.2667C126.4 66.1334 152.667 66.4 152.667 66.9334C152.667 67.4667 126.8 114.667 95.0668 171.6Z"
          fill="#FF3D00"/>
    <circle cx="171" cy="212" r="12" fill="#FF3D00"/>
</svg>
